<svg width="85" height="17" viewBox="0 0 85 17" fill="none" xmlns="http://www.w3.org/2000/svg">
<path d="M12.6567 10.1099V13.0298H0.887207L0.662598 10.7163L7.23242 0.148438H10.2197L6.97412 5.46045L4.27881 10.1099H12.6567ZM11.0059 0.148438V16.5H7.22119V0.148438H11.0059ZM19.9004 16.5H16.2729L16.2954 13.4678H19.9004C20.6491 13.4678 21.2817 13.2881 21.7983 12.9287C22.3224 12.5693 22.7192 12.034 22.9888 11.3228C23.2658 10.604 23.4043 9.72054 23.4043 8.67236V7.96484C23.4043 7.17871 23.3257 6.48991 23.1685 5.89844C23.0187 5.29948 22.7941 4.8016 22.4946 4.40479C22.1951 4.00049 21.8208 3.69727 21.3716 3.49512C20.9299 3.29297 20.4207 3.19189 19.8442 3.19189H16.2056V0.148438H19.8442C20.9523 0.148438 21.9668 0.339355 22.8877 0.721191C23.8161 1.09554 24.6172 1.6346 25.291 2.33838C25.9723 3.03467 26.4964 3.86198 26.8633 4.82031C27.2376 5.77116 27.4248 6.82682 27.4248 7.9873V8.67236C27.4248 9.82536 27.2376 10.881 26.8633 11.8394C26.4964 12.7977 25.9761 13.625 25.3022 14.3213C24.6284 15.0176 23.8311 15.5566 22.9102 15.9385C21.9967 16.3128 20.9935 16.5 19.9004 16.5ZM18.5303 0.148438V16.5H14.5884V0.148438H18.5303ZM48.8638 0.148438V16.5H44.9331L39.1494 6.3252V16.5H35.2075V0.148438H39.1494L44.9331 10.3232V0.148438H48.8638ZM60.229 0.148438H64.1709V10.8286C64.1709 12.1014 63.9051 13.1795 63.3735 14.063C62.842 14.939 62.097 15.6016 61.1387 16.0508C60.1803 16.5 59.0535 16.7246 57.7583 16.7246C56.478 16.7246 55.3512 16.5 54.3779 16.0508C53.4121 15.6016 52.6559 14.939 52.1094 14.063C51.5703 13.1795 51.3008 12.1014 51.3008 10.8286V0.148438H55.2539V10.8286C55.2539 11.5024 55.3512 12.0527 55.5459 12.4795C55.7406 12.8988 56.0251 13.2057 56.3994 13.4004C56.7738 13.5951 57.2267 13.6924 57.7583 13.6924C58.2974 13.6924 58.7503 13.5951 59.1172 13.4004C59.484 13.2057 59.7611 12.8988 59.9482 12.4795C60.1354 12.0527 60.229 11.5024 60.229 10.8286V0.148438ZM68.6069 0.148438H71.8188L75.4688 11.5249L79.1187 0.148438H82.3306L76.7715 16.5H74.166L68.6069 0.148438ZM66.6528 0.148438H69.9771L70.5947 12.6816V16.5H66.6528V0.148438ZM80.9604 0.148438H84.2959V16.5H80.3428V12.6816L80.9604 0.148438Z" fill="url(#paint0_linear_1352_6129)"/>
<defs>
<linearGradient id="paint0_linear_1352_6129" x1="90.5867" y1="17.2174" x2="4.41456" y2="-0.739325" gradientUnits="userSpaceOnUse">
<stop stop-color="#CF0000"/>
<stop offset="1" stop-color="#3D54BC"/>
</linearGradient>
</defs>
</svg>
