<?xml version="1.0" encoding="utf-8"?>
<!-- Generator: Adobe Illustrator 24.0.0, SVG Export Plug-In . SVG Version: 6.00 Build 0)  -->
<svg version="1.1" id="Layer_1" xmlns="http://www.w3.org/2000/svg" xmlns:xlink="http://www.w3.org/1999/xlink" x="0px" y="0px"
	 viewBox="0 0 48 48" style="enable-background:new 0 0 48 48;" xml:space="preserve">
<style type="text/css">
	.st0{fill:#CF2E2E;}
</style>
<g id="_1">
	<path class="st0" d="M44,12v22c0,2.2-1.8,4-4,4c-3.3,0-9.9,0-12.7,2H44c1.1,0,2-0.9,2-2V14C46,12.9,45.1,12,44,12z"/>
	<path class="st0" d="M4,34V12c-1.1,0-2,0.9-2,2v24c0,1.1,0.9,2,2,2h16.7c-2.8-2-9.4-2-12.7-2C5.8,38,4,36.2,4,34z"/>
	<path class="st0" d="M8,8c-1.1,0-2,0.9-2,2v24c0,1.1,0.9,2,2,2c5.9,0,12.4,0.3,15,3.4V10.7C19.4,8.3,13.5,8,8,8z"/>
	<path class="st0" d="M42,34V10c0-1.1-0.9-2-2-2c-5.5,0-11.4,0.3-15,2.7v28.6c2.6-3.1,9.1-3.4,15-3.4C41.1,36,42,35.1,42,34z"/>
</g>
</svg>
