<svg width="29" height="27" viewBox="0 0 29 27" fill="none" xmlns="http://www.w3.org/2000/svg">
  <path fill-rule="evenodd" clip-rule="evenodd" d="M13.971 2.87323C10.2371 0.612081 5.67043 0.242776 1.62737 1.87499C1.03849 2.11273 0.652344 2.68837 0.652344 3.32849V19.0165C0.652344 20.0673 1.70394 20.7859 2.67067 20.3956C5.98151 19.059 9.72112 19.3614 12.7788 21.2131L14.2924 22.1297C14.4078 22.1996 14.5313 22.2301 14.6512 22.228C14.771 22.2301 14.8945 22.1996 15.0099 22.1297L16.5235 21.2131C19.5812 19.3614 23.3208 19.059 26.6317 20.3956C27.5984 20.7859 28.65 20.0673 28.65 19.0165V3.32849C28.65 2.68837 28.2639 2.11273 27.675 1.87499C23.6319 0.242776 19.0653 0.612081 15.3313 2.87323L14.6512 3.2851L13.971 2.87323ZM15.6511 6.08808C15.6511 5.53072 15.2034 5.0789 14.6512 5.0789C14.0989 5.0789 13.6513 5.53072 13.6513 6.08808V18.8711C13.6513 19.4285 14.0989 19.8803 14.6512 19.8803C15.2034 19.8803 15.6511 19.4285 15.6511 18.8711V6.08808Z" fill="url(#paint0_linear_2166_14959)"/>
  <path d="M2.28533 22.9647C4.98358 21.3761 8.32011 21.3761 11.0184 22.9647L12.4679 23.8181C13.817 24.6124 15.4853 24.6124 16.8344 23.8181L18.284 22.9647C20.9822 21.3761 24.3188 21.3761 27.017 22.9647L27.154 23.0454C27.631 23.3262 27.7921 23.9441 27.5139 24.4256C27.2356 24.907 26.6234 25.0696 26.1463 24.7888L26.0094 24.7081C23.9338 23.4862 21.3672 23.4862 19.2917 24.7081L17.8421 25.5616C15.8703 26.7224 13.4321 26.7224 11.4603 25.5616L10.0107 24.7081C7.93512 23.4862 5.36856 23.4862 3.29298 24.7081L3.15601 24.7888C2.67899 25.0696 2.06673 24.907 1.78847 24.4256C1.51021 23.9441 1.67134 23.3262 2.14835 23.0454L2.28533 22.9647Z" fill="url(#paint1_linear_2166_14959)"/>
  <defs>
    <linearGradient id="paint0_linear_2166_14959" x1="1.89763" y1="2.02742" x2="28.6442" y2="26.137" gradientUnits="userSpaceOnUse">
      <stop stop-color="#FFFFFF"/>
      <stop offset="1" stop-color="#FFFFFF"/>
    </linearGradient>
    <linearGradient id="paint1_linear_2166_14959" x1="1.89763" y1="2.02742" x2="28.6442" y2="26.137" gradientUnits="userSpaceOnUse">
      <stop stop-color="#FFFFFF"/>
      <stop offset="1" stop-color="#FFFFFF"/>
    </linearGradient>
  </defs>
</svg>
