<svg width="30" height="26" viewBox="0 0 30 26" fill="none" xmlns="http://www.w3.org/2000/svg">
<path d="M28.6338 13.6921C28.8851 13.5525 29.041 13.2876 29.041 13C29.041 12.7125 28.8851 12.4476 28.6338 12.308L25.0201 10.3004C17.9006 6.34512 10.3955 3.12777 2.62185 0.69849L1.56882 0.369417C1.32844 0.294298 1.06666 0.338032 0.863751 0.487208C0.660842 0.636385 0.541016 0.873203 0.541016 1.12505V10.2292C0.541016 10.6503 0.870599 10.9977 1.29107 11.0198L2.88967 11.1039C6.78722 11.3091 10.661 11.8377 14.471 12.6844L14.8483 12.7682C14.9322 12.7869 14.9686 12.8212 14.9889 12.8484C15.0144 12.8828 15.0343 12.9357 15.0343 13C15.0343 13.0644 15.0144 13.1173 14.9889 13.1517C14.9686 13.1789 14.9322 13.2132 14.8483 13.2319L14.471 13.3157C10.661 14.1624 6.78721 14.691 2.88963 14.8962L1.29107 14.9803C0.870599 15.0024 0.541016 15.3498 0.541016 15.7709V24.875C0.541016 25.1269 0.660841 25.3637 0.86375 25.5129C1.06666 25.6621 1.32844 25.7058 1.56882 25.6307L2.62187 25.3016C10.3955 22.8723 17.9006 19.655 25.0201 15.6997L28.6338 13.6921Z" fill="black"/>
</svg>
