<svg width="25" height="25" viewBox="0 0 25 25" fill="none" xmlns="http://www.w3.org/2000/svg">
<circle cx="12.5" cy="12.5" r="12.5" fill="#9E9E9E"/>
<path d="M13.5537 15.1749V6.52174H15.6766V15.1749C15.6766 15.9958 15.5011 16.695 15.1501 17.2724C14.7991 17.8499 14.3208 18.2914 13.715 18.5972C13.1093 18.9029 12.4214 19.0557 11.6515 19.0557C10.8646 19.0557 10.1654 18.9227 9.55401 18.6566C8.94826 18.3905 8.47271 17.9829 8.12738 17.4338C7.78204 16.8846 7.60938 16.1883 7.60938 15.3448H9.74932C9.74932 15.8316 9.82575 16.2251 9.9786 16.5251C10.1371 16.8195 10.3579 17.0347 10.641 17.1705C10.9297 17.3007 11.2665 17.3658 11.6515 17.3658C12.0195 17.3658 12.345 17.2837 12.6281 17.1196C12.9168 16.9497 13.1432 16.7035 13.3074 16.3808C13.4716 16.0524 13.5537 15.6505 13.5537 15.1749Z" fill="white"/>
</svg>
