<svg width="34" height="34" viewBox="0 0 34 34" fill="none" xmlns="http://www.w3.org/2000/svg">
<rect width="34" height="34" rx="17" fill="#F1F1F1"/>
<path fill-rule="evenodd" clip-rule="evenodd" d="M24.75 17C24.75 16.5858 24.4142 16.25 24 16.25H10C9.58579 16.25 9.25 16.5858 9.25 17C9.25 17.4142 9.58579 17.75 10 17.75H24C24.4142 17.75 24.75 17.4142 24.75 17Z" fill="black"/>
<path fill-rule="evenodd" clip-rule="evenodd" d="M24.75 12C24.75 11.5858 24.4142 11.25 24 11.25H10C9.58579 11.25 9.25 11.5858 9.25 12C9.25 12.4142 9.58579 12.75 10 12.75H24C24.4142 12.75 24.75 12.4142 24.75 12Z" fill="black"/>
<path fill-rule="evenodd" clip-rule="evenodd" d="M24.75 22C24.75 21.5858 24.4142 21.25 24 21.25H10C9.58579 21.25 9.25 21.5858 9.25 22C9.25 22.4142 9.58579 22.75 10 22.75H24C24.4142 22.75 24.75 22.4142 24.75 22Z" fill="black"/>
</svg>
