<svg width="40" height="40" viewBox="0 0 40 40" fill="none" xmlns="http://www.w3.org/2000/svg">
<rect width="40" height="40" rx="20" fill="#264CAA"/>
<path d="M20.0002 27.0588C18.0296 27.0588 16.3605 26.375 14.9929 25.0073C13.6252 23.6397 12.9414 21.9706 12.9414 20C12.9414 18.0294 13.6252 16.3603 14.9929 14.9926C16.3605 13.625 18.0296 12.9412 20.0002 12.9412C21.0149 12.9412 21.9855 13.1509 22.912 13.5703C23.8385 13.9891 24.6326 14.5882 25.2943 15.3676V13.8235C25.2943 13.5735 25.3791 13.3638 25.5485 13.1944C25.7173 13.0256 25.9267 12.9412 26.1767 12.9412C26.4267 12.9412 26.6361 13.0256 26.8049 13.1944C26.9743 13.3638 27.0591 13.5735 27.0591 13.8235V18.2353C27.0591 18.4853 26.9743 18.6947 26.8049 18.8635C26.6361 19.0329 26.4267 19.1176 26.1767 19.1176H21.7649C21.5149 19.1176 21.3055 19.0329 21.1367 18.8635C20.9673 18.6947 20.8826 18.4853 20.8826 18.2353C20.8826 17.9853 20.9673 17.7756 21.1367 17.6062C21.3055 17.4373 21.5149 17.3529 21.7649 17.3529H24.5885C24.1179 16.5294 23.4746 15.8823 22.6588 15.4118C21.8423 14.9412 20.9561 14.7059 20.0002 14.7059C18.5296 14.7059 17.2796 15.2206 16.2502 16.25C15.2208 17.2794 14.7061 18.5294 14.7061 20C14.7061 21.4706 15.2208 22.7206 16.2502 23.75C17.2796 24.7794 18.5296 25.2941 20.0002 25.2941C21.0149 25.2941 21.9526 25.0256 22.8132 24.4885C23.6732 23.952 24.3164 23.2353 24.7429 22.3382C24.8164 22.1765 24.9379 22.0406 25.1073 21.9306C25.2761 21.82 25.4488 21.7647 25.6252 21.7647C25.9635 21.7647 26.2173 21.8823 26.3867 22.1176C26.5555 22.3529 26.5738 22.6176 26.4414 22.9118C25.8826 24.1618 25.0223 25.1653 23.8605 25.9223C22.6988 26.68 21.412 27.0588 20.0002 27.0588Z" fill="white"/>
</svg>
