<svg width="34" height="34" viewBox="0 0 34 34" fill="none" xmlns="http://www.w3.org/2000/svg">
<rect width="34" height="34" rx="17" fill="#F1F1F1"/>
<path d="M17 23C15.325 23 13.9062 22.4187 12.7437 21.2562C11.5812 20.0938 11 18.675 11 17C11 15.325 11.5812 13.9062 12.7437 12.7437C13.9062 11.5812 15.325 11 17 11C17.8625 11 18.6875 11.1782 19.475 11.5347C20.2625 11.8907 20.9375 12.4 21.5 13.0625V11.75C21.5 11.5375 21.572 11.3593 21.716 11.2153C21.8595 11.0718 22.0375 11 22.25 11C22.4625 11 22.6405 11.0718 22.784 11.2153C22.928 11.3593 23 11.5375 23 11.75V15.5C23 15.7125 22.928 15.8905 22.784 16.034C22.6405 16.178 22.4625 16.25 22.25 16.25H18.5C18.2875 16.25 18.1095 16.178 17.966 16.034C17.822 15.8905 17.75 15.7125 17.75 15.5C17.75 15.2875 17.822 15.1092 17.966 14.9652C18.1095 14.8217 18.2875 14.75 18.5 14.75H20.9C20.5 14.05 19.9532 13.5 19.2597 13.1C18.5657 12.7 17.8125 12.5 17 12.5C15.75 12.5 14.6875 12.9375 13.8125 13.8125C12.9375 14.6875 12.5 15.75 12.5 17C12.5 18.25 12.9375 19.3125 13.8125 20.1875C14.6875 21.0625 15.75 21.5 17 21.5C17.8625 21.5 18.6595 21.2718 19.391 20.8153C20.122 20.3593 20.6687 19.75 21.0312 18.9875C21.0938 18.85 21.197 18.7345 21.341 18.641C21.4845 18.547 21.6313 18.5 21.7812 18.5C22.0688 18.5 22.2845 18.6 22.4285 18.8C22.572 19 22.5875 19.225 22.475 19.475C22 20.5375 21.2688 21.3905 20.2812 22.034C19.2937 22.678 18.2 23 17 23Z" fill="black"/>
</svg>
