<svg width="29" height="22" viewBox="0 0 29 22" fill="none" xmlns="http://www.w3.org/2000/svg">
<path d="M28.7734 16.0851C28.5386 16.6216 28.116 16.8452 27.5056 16.8005C27.1534 16.7781 26.8012 16.8005 26.4256 16.8005C26.4256 14.7661 26.4256 12.7317 26.4256 10.6973C26.543 10.6973 26.6604 10.6749 26.8012 10.6749C26.8012 10.5632 26.8012 10.4514 26.8012 10.362C26.8012 8.21579 26.8012 6.06963 26.8012 3.90111C26.8012 3.74461 26.7777 3.65519 26.6134 3.56577C26.003 3.25278 25.6978 2.64918 25.8386 2.02321C25.9795 1.39724 26.496 0.972483 27.2003 0.905415C27.8343 0.860703 28.4447 1.24075 28.6795 1.84436C28.7029 1.88907 28.7264 1.95614 28.7734 2.00085C28.7734 2.20206 28.7734 2.40326 28.7734 2.58211C28.6325 2.98451 28.4212 3.34221 27.9986 3.54341C27.8343 3.61048 27.7873 3.72226 27.7873 3.87875C27.7873 6.04727 27.7873 8.23815 27.7873 10.4067C27.7873 10.4961 27.7873 10.5855 27.8108 10.6749C28.3273 10.7644 28.4916 10.8761 28.7734 11.3903C28.7734 12.9552 28.7734 14.5202 28.7734 16.0851Z" fill="url(#paint0_linear_2166_14719)"/>
<path d="M8.86523 18.6338C8.86523 15.3698 8.86523 12.1282 8.86523 8.86426C11.4713 8.86426 14.0539 8.86426 16.6599 8.86426C16.6599 12.1282 16.6599 15.3698 16.6599 18.6338C14.0773 18.6338 11.4713 18.6338 8.86523 18.6338ZM13.5608 12.1282C13.5139 12.2176 13.4434 12.3294 13.373 12.4188C12.5748 13.6931 11.9878 15.0345 11.6122 16.4653C11.5887 16.5547 11.5652 16.6888 11.6122 16.7782C11.6826 17.0018 11.8469 17.1136 12.0817 17.1136C12.3635 17.1136 12.5043 16.9124 12.5748 16.6665C13.0678 14.8556 13.913 13.2013 15.0634 11.7035C15.2747 11.4352 15.2747 11.2116 15.1104 11.0328C14.9225 10.8316 14.7347 10.8092 14.406 10.9881C14.0069 11.1893 13.6078 11.234 13.2087 11.0775C13.0678 11.0328 12.9504 10.9881 12.8095 10.9434C12.0817 10.7198 11.3539 10.7869 10.6496 11.0551C10.3913 11.1446 10.2739 11.3905 10.3209 11.614C10.3913 11.8823 10.6261 11.9941 10.9313 11.9494C11.0017 11.927 11.0722 11.9047 11.1426 11.8823C11.6356 11.7258 12.1287 11.7035 12.6217 11.8823C12.9034 11.9717 13.2321 12.0388 13.5608 12.1282Z" fill="url(#paint1_linear_2166_14719)"/>
<path d="M17.668 8.8418C20.2505 8.8418 22.8331 8.8418 25.4157 8.8418C25.4157 12.1058 25.4157 15.3697 25.4157 18.6337C22.8331 18.6337 20.274 18.6337 17.668 18.6337C17.668 15.3921 17.668 12.1281 17.668 8.8418ZM21.9644 12.1281C21.6123 12.7988 21.2131 13.4471 20.9079 14.1401C20.5792 14.9002 20.321 15.6827 20.0627 16.4428C19.9453 16.7558 20.1097 17.0017 20.3679 17.0911C20.6497 17.1582 20.8844 17.0017 21.0018 16.7111C21.0253 16.6664 21.0253 16.6216 21.0488 16.5769C21.354 15.7945 21.5888 14.9897 21.9644 14.2296C22.4105 13.3353 22.9975 12.5082 23.5375 11.6586C23.6783 11.4351 23.7253 11.2339 23.5609 11.0327C23.3966 10.8538 23.1618 10.8091 22.9036 10.9433C22.4105 11.2339 21.941 11.1892 21.4244 11.0103C20.6497 10.7197 19.8984 10.7644 19.1236 11.0327C18.9123 11.0997 18.748 11.2115 18.7245 11.4351C18.6775 11.8151 19.0062 12.0387 19.4288 11.9046C19.8514 11.7704 20.2505 11.681 20.6966 11.7704C21.1427 11.8822 21.5418 12.0163 21.9644 12.1281Z" fill="url(#paint2_linear_2166_14719)"/>
<path d="M7.85515 18.6337C5.27257 18.6337 2.69 18.6337 0.107422 18.6337C0.107422 15.3697 0.107422 12.1058 0.107422 8.8418C2.69 8.8418 5.2491 8.8418 7.85515 8.8418C7.85515 12.1058 7.85515 15.3697 7.85515 18.6337ZM4.96736 12.1281C4.96736 12.1281 4.96736 12.1505 4.96736 12.1728C4.9204 12.2622 4.84997 12.3517 4.80301 12.4411C4.02824 13.693 3.46477 15.012 3.06564 16.3981C2.97173 16.7558 3.08912 17.0241 3.39434 17.0911C3.67607 17.1582 3.91085 17.0017 4.00476 16.644C4.4978 14.8332 5.34301 13.1788 6.49343 11.681C6.68125 11.4127 6.70473 11.2115 6.54038 11.0327C6.37604 10.8315 6.14126 10.7868 5.83604 10.9656C5.41344 11.1892 4.99084 11.2115 4.54476 11.055C4.42737 11.0103 4.30998 10.9656 4.16911 10.9433C3.44129 10.7197 2.73695 10.8091 2.03261 11.0774C1.77436 11.1892 1.65697 11.3904 1.7274 11.6363C1.79784 11.8822 2.00914 12.0163 2.31435 11.9716C2.40826 11.9493 2.50217 11.9269 2.57261 11.9046C3.04217 11.7481 3.51173 11.7481 4.00476 11.9046C4.33346 11.9716 4.63867 12.0387 4.96736 12.1281Z" fill="url(#paint3_linear_2166_14719)"/>
<path d="M25.4173 19.5947C25.4173 19.9971 25.4408 20.3995 25.4173 20.7796C25.3939 21.1373 25.0652 21.4503 24.666 21.5173C24.5252 21.5397 24.3608 21.562 24.22 21.562C16.5896 21.562 8.93581 21.562 1.30547 21.562C0.882864 21.562 0.483738 21.495 0.248959 21.1149C0.178525 21.0031 0.108091 20.8467 0.108091 20.7125C0.0846129 20.3548 0.108091 19.9748 0.108091 19.5947C8.53668 19.5947 16.9653 19.5947 25.4173 19.5947Z" fill="url(#paint4_linear_2166_14719)"/>
<path d="M25.4173 7.90287C16.9653 7.90287 8.53668 7.90287 0.108091 7.90287C0.108091 7.50046 0.0846129 7.09805 0.108091 6.718C0.131569 6.36031 0.483738 6.02497 0.882864 5.9579C1.04721 5.93555 1.18808 5.93555 1.35242 5.93555C8.95928 5.93555 16.5661 5.93555 24.1965 5.93555C24.5252 5.93555 24.8539 5.93555 25.0886 6.15911C25.2295 6.3156 25.3939 6.49444 25.4173 6.69565C25.4408 7.0757 25.4173 7.4781 25.4173 7.90287Z" fill="url(#paint5_linear_2166_14719)"/>
<defs>
<linearGradient id="paint0_linear_2166_14719" x1="5.79459" y1="1.02739" x2="29.1501" y2="21.746" gradientUnits="userSpaceOnUse">
<stop stop-color="#FFFFFF"/>
<stop offset="1" stop-color="#FFFFFF"/>
</linearGradient>
<linearGradient id="paint1_linear_2166_14719" x1="0.521868" y1="6.67808" x2="24.6308" y2="21.3695" gradientUnits="userSpaceOnUse">
<stop stop-color="#FFFFFF"/>
<stop offset="1" stop-color="#FFFFFF"/>
</linearGradient>
<linearGradient id="paint2_linear_2166_14719" x1="0.143962" y1="6.67797" x2="25.383" y2="21.7461" gradientUnits="userSpaceOnUse">
<stop stop-color="#FFFFFF"/>
<stop offset="1" stop-color="#FFFFFF"/>
</linearGradient>
<linearGradient id="paint3_linear_2166_14719" x1="0.52128" y1="6.67797" x2="25.3836" y2="21.7461" gradientUnits="userSpaceOnUse">
<stop stop-color="#FFFFFF"/>
<stop offset="1" stop-color="#FFFFFF"/>
</linearGradient>
<linearGradient id="paint4_linear_2166_14719" x1="0.144741" y1="6.67769" x2="25.3838" y2="21.3691" gradientUnits="userSpaceOnUse">
<stop stop-color="#FFFFFF"/>
<stop offset="1" stop-color="#FFFFFF"/>
</linearGradient>
<linearGradient id="paint5_linear_2166_14719" x1="0.521447" y1="6.3013" x2="25.0071" y2="22.1228" gradientUnits="userSpaceOnUse">
<stop stop-color="#FFFFFF"/>
<stop offset="1" stop-color="#FFFFFF"/>
</linearGradient>
</defs>
</svg>
